<!-- Мини-бейдж 64x64: горы + сосна. Подходит для favicon. -->
<svg width="64" height="64" viewBox="0 0 64 64" xmlns="http://www.w3.org/2000/svg" role="img" aria-label="Мини-эмблема: горы и сосна">
  <defs>
    <linearGradient id="sky" x1="0" y1="0" x2="0" y2="1">
      <stop offset="0%" stop-color="#E9EFEF"/>
      <stop offset="100%" stop-color="#9FC5D1"/>
    </linearGradient>
  </defs>
  <circle cx="32" cy="32" r="30" fill="#F5F2E8" stroke="#23313D" stroke-width="4"/>
  <g clip-path="url(#c)">
    <clipPath id="c"><circle cx="32" cy="32" r="26"/></clipPath>
    <rect x="6" y="6" width="52" height="52" fill="url(#sky)"/>
    <circle cx="44" cy="18" r="6" fill="#F6D17A"/>
    <polygon points="14,38 26,22 38,38" fill="#5B6B7A"/>
    <polygon points="26,22 30,27 22,27" fill="#FFFFFF"/>
    <polygon points="22,42 34,26 46,42" fill="#3E4F5C"/>
    <polygon points="34,26 37,30 31,30" fill="#FFFFFF"/>
    <rect x="6" y="40" width="52" height="18" fill="#78A1BB"/>
    <rect x="6" y="46" width="52" height="12" fill="#638A74"/>
    <!-- Сосна -->
    <polygon points="12,46 16,38 20,46" fill="#2E5E4E"/>
    <rect x="15.2" y="46" width="1.6" height="4" fill="#2E5E4E"/>
  </g>
</svg>